<?xml version="1.0" standalone="no"?>
<!DOCTYPE svg PUBLIC "-//W3C//DTD SVG 20010904//EN"
 "http://www.w3.org/TR/2001/REC-SVG-20010904/DTD/svg10.dtd">
<svg version="1.0" xmlns="http://www.w3.org/2000/svg"
 width="400.000000pt" height="400.000000pt" viewBox="0 0 400.000000 400.000000"
 preserveAspectRatio="xMidYMid meet">
<metadata>
Created by potrace 1.14, written by Peter Selinger 2001-2017
</metadata>
<g transform="translate(0.000000,400.000000) scale(0.100000,-0.100000)"
fill="#000000" stroke="none">
<path d="M1795 3900 c-3 -5 -1 -10 4 -10 6 0 11 5 11 10 0 6 -2 10 -4 10 -3 0
-8 -4 -11 -10z"/>
<path d="M1818 3879 c-38 -15 -68 -23 -68 -18 0 6 -17 9 -37 7 -32 -3 -38 -6
-37 -25 2 -26 -21 -31 -30 -8 -6 17 -42 20 -51 5 -3 -5 -15 -10 -27 -10 -11 0
-34 -6 -51 -14 -18 -7 -52 -23 -77 -33 -25 -11 -62 -26 -82 -32 -21 -7 -40
-17 -43 -22 -4 -5 -15 -9 -26 -9 -11 0 -17 -4 -14 -10 3 -5 -2 -10 -13 -10
-23 0 -109 -55 -138 -88 -12 -14 -27 -21 -33 -18 -7 4 -9 1 -5 -8 6 -16 -48
-50 -61 -38 -5 4 -5 2 -2 -4 4 -7 -13 -31 -36 -55 -54 -55 -117 -142 -117
-161 0 -8 -7 -23 -15 -34 -8 -10 -15 -27 -15 -36 0 -10 -12 -39 -27 -65 -14
-26 -30 -55 -34 -63 -5 -8 -15 -42 -24 -75 -9 -33 -21 -78 -27 -100 -15 -52
-15 -257 -1 -360 12 -85 41 -171 75 -218 18 -26 19 -33 8 -66 -16 -50 2 -174
40 -261 15 -36 37 -97 49 -137 12 -40 26 -75 31 -78 6 -3 10 -21 10 -40 0 -19
5 -37 11 -40 6 -4 8 -14 5 -22 -3 -8 -1 -11 4 -8 6 3 10 -3 10 -14 0 -10 3
-26 6 -35 3 -9 1 -16 -5 -16 -7 0 -16 10 -21 23 l-9 22 0 -23 c-1 -15 6 -26
17 -29 13 -3 22 -22 31 -66 11 -53 43 -158 67 -221 6 -15 2 -17 -31 -10 -25 4
-36 3 -32 -3 4 -6 23 -14 42 -17 27 -5 42 -17 62 -47 14 -22 27 -50 28 -62 1
-12 8 -22 16 -23 29 -2 31 -4 19 -19 -10 -12 -10 -15 4 -15 9 0 16 -7 16 -15
0 -20 -12 -19 -38 5 -12 12 -23 16 -27 10 -3 -6 -13 -10 -21 -10 -11 0 -13 6
-9 20 6 18 -3 25 -27 21 -19 -3 -88 33 -88 45 0 8 -6 14 -13 14 -7 0 -20 9
-29 19 -11 13 -24 18 -39 14 -18 -5 -21 -3 -16 10 4 11 1 17 -9 17 -8 0 -12
-4 -9 -10 3 -5 -3 -10 -14 -10 -12 0 -21 5 -21 10 0 6 5 10 11 10 5 0 7 5 4
10 -4 6 -14 2 -24 -11 -15 -19 -19 -20 -33 -6 -8 9 -24 14 -34 13 -10 -2 -22
2 -26 7 -4 7 -11 7 -20 -1 -14 -11 -42 -11 -54 1 -4 4 -1 7 6 7 7 0 10 3 6 7
-4 4 -25 6 -48 4 -26 -2 -44 2 -50 11 -7 9 -8 7 -5 -9 3 -15 -1 -23 -12 -26
-11 -3 -9 -5 6 -6 12 0 24 3 27 8 4 5 19 5 36 -2 23 -9 30 -18 30 -38 0 -18 8
-29 25 -37 15 -7 25 -8 25 -2 0 18 18 10 34 -15 17 -26 17 -26 -11 -19 -15 4
-44 20 -64 35 -20 16 -43 29 -51 29 -8 0 -18 3 -22 7 -11 12 -56 14 -56 3 0
-5 9 -10 19 -10 14 0 19 -7 17 -25 0 -14 -7 -25 -16 -26 -13 0 -13 -1 0 -6 8
-3 17 -10 20 -14 3 -5 23 -6 44 -2 38 6 38 6 15 19 l-24 13 23 1 c15 0 26 -7
29 -19 2 -10 20 -25 39 -35 37 -17 37 -36 1 -36 -18 0 -19 2 -7 10 13 8 11 11
-7 16 -13 4 -23 10 -23 15 0 5 -10 9 -22 9 l-23 -1 23 -19 c12 -10 18 -21 14
-24 -5 -3 -17 3 -27 14 -18 20 -45 27 -45 12 0 -4 5 -13 12 -20 18 -18 -3 -14
-24 4 -19 18 -138 29 -138 13 0 -20 7 -23 48 -22 37 0 43 -2 39 -18 -5 -17 3
-18 124 -15 76 2 129 0 129 -6 0 -5 10 -6 23 -3 22 7 22 7 2 -10 -14 -11 -16
-18 -7 -21 21 -9 13 -22 -10 -16 -14 3 -19 2 -14 -6 13 -21 -8 -12 -33 13 -13
15 -18 25 -10 25 7 0 10 3 6 6 -3 3 -27 -2 -52 -12 -27 -10 -50 -14 -53 -8
-10 13 -72 17 -72 5 0 -6 12 -11 28 -11 29 -1 66 -23 55 -33 -3 -4 5 -7 18 -7
14 0 31 -6 39 -12 12 -11 12 -10 1 5 -7 9 -20 17 -27 17 -8 0 -14 6 -14 14 0
9 7 12 20 9 11 -3 20 -9 20 -14 0 -5 9 -9 20 -9 11 0 20 -4 20 -9 0 -5 9 -13
20 -16 11 -3 20 -14 20 -23 1 -16 2 -16 14 1 16 21 30 23 23 3 -4 -10 -1 -13
8 -10 7 3 18 -4 25 -15 11 -21 -3 -31 -15 -11 -12 19 -30 10 -31 -15 -1 -14 2
-25 8 -25 5 0 6 -4 3 -10 -9 -15 34 -12 48 3 18 18 19 67 1 67 -8 0 -14 5 -14
11 0 6 -7 17 -15 26 -8 8 -13 19 -9 24 3 5 12 3 20 -5 8 -9 21 -13 28 -10 8 3
26 -7 40 -21 18 -18 34 -25 48 -22 14 4 22 0 25 -13 7 -28 59 -34 85 -10 16
14 37 20 77 22 97 3 105 6 133 46 10 14 19 19 22 13 4 -6 -14 -33 -39 -60 -26
-28 -44 -55 -40 -60 3 -6 -1 -11 -9 -11 -9 0 -16 -7 -16 -15 0 -8 -4 -15 -10
-15 -5 0 -6 -7 -3 -17 4 -10 2 -14 -4 -10 -13 8 -66 -47 -56 -58 5 -4 3 -5 -4
-1 -12 6 -30 -8 -62 -47 -12 -15 -10 -18 10 -26 22 -9 22 -10 4 -12 -11 -1
-27 -1 -35 0 -10 0 -11 -1 -2 -5 20 -9 14 -27 -8 -21 -14 4 -24 -4 -39 -29
-20 -34 -14 -47 9 -19 7 8 16 15 21 15 4 0 -3 -12 -16 -26 -27 -29 -32 -44
-14 -44 8 0 8 -4 0 -14 -20 -24 18 -82 47 -71 18 6 15 -12 -4 -23 -14 -8 -14
-10 0 -24 33 -34 162 11 267 93 85 66 88 67 29 5 -66 -68 -153 -115 -233 -123
-53 -5 -57 -8 -67 -39 -13 -38 0 -93 25 -114 8 -6 21 -33 31 -58 27 -76 44
-114 77 -170 l31 -52 138 0 138 0 -4 33 c-2 17 -10 50 -16 71 -7 22 -9 57 -6
78 4 22 0 76 -8 121 -17 96 -27 192 -20 185 2 -3 11 -44 20 -92 15 -85 53
-184 79 -206 11 -9 12 -7 8 9 -3 11 -3 31 0 43 6 21 11 23 54 20 26 -2 55 -6
63 -10 8 -3 41 -6 72 -7 31 -1 68 -7 82 -14 26 -14 62 -8 51 9 -3 5 -1 10 4
10 6 0 11 -7 11 -15 0 -11 12 -15 45 -15 25 0 45 5 45 10 0 6 7 10 15 10 8 0
15 -4 15 -10 0 -21 30 -9 36 14 3 14 11 23 18 20 9 -3 16 10 22 38 7 33 14 43
29 43 11 0 21 8 23 18 3 14 -1 17 -20 12 -38 -10 -55 17 -31 49 19 26 43 34
43 14 0 -6 7 -4 18 5 10 10 24 17 31 17 7 0 11 6 8 13 -2 6 -1 19 4 28 5 10 0
24 -17 42 -30 33 -30 38 1 67 13 12 23 26 22 29 -1 4 9 24 23 44 26 39 59 49
61 20 0 -12 2 -13 6 -5 3 7 0 19 -7 27 -14 17 -4 56 13 52 17 -3 21 49 6 66
-7 7 -23 12 -36 9 -12 -2 -36 0 -52 6 -23 8 -32 7 -42 -4 -8 -9 -16 -11 -23
-5 -6 6 -38 9 -71 8 -70 -2 -131 18 -115 38 15 19 -11 26 -34 9 -10 -7 -43
-21 -73 -30 -51 -16 -57 -16 -67 -2 -7 9 -23 18 -36 20 -20 2 -26 10 -28 36
-4 35 -5 36 -32 22 -13 -7 -21 -6 -30 5 -6 7 -18 11 -26 8 -10 -4 -14 3 -14
23 -1 28 -1 28 -15 10 -18 -24 -30 -14 -38 31 l-6 32 62 -1 c35 0 74 5 87 12
18 9 25 10 28 1 4 -11 13 -10 102 11 69 15 100 29 100 44 0 7 10 14 23 16 16
2 23 11 25 31 2 15 12 33 23 40 35 22 22 34 -31 29 -61 -6 -61 11 0 46 53 30
51 42 -5 29 -32 -7 -59 -7 -94 1 -36 8 -56 8 -79 0 -23 -9 -37 -9 -57 0 -40
18 -23 29 62 36 98 9 185 37 252 81 61 41 59 40 83 18 17 -15 20 -15 39 5 18
20 22 21 47 7 39 -21 62 -41 62 -53 0 -11 23 -22 46 -22 10 0 14 13 14 45 0
36 -6 52 -25 71 -14 14 -25 33 -25 44 0 35 -12 50 -40 50 -16 0 -30 7 -34 15
-3 8 -12 15 -21 15 -16 0 -21 -15 -7 -23 4 -2 2 -3 -4 -1 -6 1 -17 -2 -25 -7
-12 -8 -11 -11 4 -20 9 -5 17 -14 17 -19 0 -17 -55 -37 -103 -38 -26 0 -70 -3
-98 -7 -33 -5 -54 -3 -64 5 -14 12 -44 10 -92 -5 -15 -5 -23 -3 -23 4 0 7 4
10 9 7 4 -3 20 8 35 25 25 27 31 29 70 24 30 -5 46 -3 51 6 5 7 4 10 -2 6 -13
-8 -47 28 -39 42 4 5 -6 11 -21 13 l-28 4 28 12 c31 13 33 19 11 43 -15 17
-14 19 12 25 27 7 53 29 54 46 0 12 -68 21 -106 13 -36 -6 -94 -54 -107 -88
-3 -9 -11 -17 -16 -17 -7 0 -7 9 0 26 5 15 8 28 7 29 -16 10 -76 29 -87 27
-16 -4 -71 46 -71 65 0 13 -4 22 -34 80 -20 39 -20 75 0 115 9 17 18 45 20 62
33 308 21 389 -64 417 -20 6 -40 16 -43 20 -3 5 -34 12 -70 15 -35 4 -77 13
-93 21 -30 15 -110 11 -121 -7 -3 -5 -30 -14 -59 -20 -30 -6 -65 -21 -79 -34
-36 -33 -57 -39 -57 -17 0 10 7 24 15 31 8 7 15 25 15 41 0 18 7 32 20 39 11
6 18 15 15 20 -3 5 -1 11 5 15 5 3 10 0 10 -7 1 -8 6 -6 15 6 7 10 18 15 23
12 11 -6 19 45 14 82 -2 12 -10 22 -18 22 -12 0 -14 7 -9 31 5 23 4 30 -6 27
-7 -2 -24 6 -37 19 l-26 24 22 15 c12 8 22 22 22 30 0 24 -39 -2 -51 -34 -6
-15 -13 -29 -17 -32 -15 -11 -32 -51 -32 -76 0 -36 -24 -26 -28 12 -9 98 -11
128 -6 117 3 -7 10 -13 15 -13 12 0 12 27 -1 32 -5 2 4 30 20 63 32 64 87 115
126 115 13 0 26 5 29 11 4 6 13 8 21 5 8 -3 17 0 20 8 6 16 54 36 154 65 41
12 104 30 140 41 64 19 148 36 162 32 4 -1 15 9 24 23 9 14 21 25 26 25 6 0
27 13 47 29 21 16 50 33 67 37 16 4 31 10 34 13 10 12 156 71 225 90 39 11 93
27 120 36 28 9 62 20 77 24 16 5 30 5 36 -1 6 -6 16 -7 22 -3 9 6 9 9 -1 16
-7 4 -10 11 -6 15 4 4 13 -1 21 -12 8 -10 27 -19 43 -20 58 -3 143 -80 143
-129 0 -8 4 -15 9 -15 24 0 70 -60 91 -120 17 -48 33 -73 61 -95 60 -48 76
-92 84 -234 4 -67 13 -138 21 -156 7 -18 10 -35 7 -39 -4 -3 1 -12 9 -19 9 -6
25 -43 36 -82 25 -87 48 -153 66 -185 7 -14 16 -37 20 -52 3 -16 12 -27 19
-25 13 2 13 -2 4 -43 -6 -27 25 -76 42 -66 5 3 19 -6 30 -21 l21 -28 -6 55
c-4 30 -11 65 -15 78 -13 35 1 104 26 130 l23 23 23 -56 c12 -30 26 -55 30
-55 4 0 10 12 14 27 3 16 17 50 31 76 20 40 24 64 24 132 0 61 -4 86 -15 95
-8 7 -22 38 -31 69 -8 31 -22 79 -30 106 -9 28 -16 64 -16 82 -1 19 -5 30 -11
26 -7 -4 -8 16 -3 59 4 48 2 74 -8 99 -9 19 -16 30 -16 24 -1 -5 -8 15 -16 45
-8 30 -19 57 -24 58 -6 2 -10 11 -10 21 0 18 -42 61 -60 61 -15 0 -70 51 -70
65 0 7 -7 18 -15 25 -9 7 -14 19 -11 26 3 8 0 11 -8 8 -8 -3 -16 4 -19 15 -3
14 -11 19 -20 15 -10 -3 -47 26 -106 85 -51 50 -91 91 -91 93 4 11 -18 46 -42
66 -15 13 -25 28 -22 34 8 13 -26 37 -52 38 -12 0 -25 -8 -29 -17 -6 -16 -8
-16 -25 5 -10 12 -23 22 -29 22 -6 0 -11 4 -11 9 0 5 -21 12 -47 16 -27 4 -51
12 -55 18 -9 15 -103 13 -123 -3 -9 -7 -14 -19 -11 -26 11 -30 -11 -20 -29 12
-10 19 -23 33 -29 32 -6 -1 -20 3 -31 8 -39 21 -136 14 -207 -17z m166 -18
c15 -6 4 -11 -41 -20 -34 -8 -67 -11 -75 -8 -7 3 -1 6 13 6 15 1 32 8 39 16
13 16 34 18 64 6z m-179 -11 c3 -5 1 -10 -4 -10 -6 0 -11 5 -11 10 0 6 2 10 4
10 3 0 8 -4 11 -10z m495 -51 c0 -5 -13 -9 -29 -9 -17 0 -32 4 -35 9 -3 5 10
9 29 9 19 0 35 -4 35 -9z m80 -29 c0 -5 -8 -10 -17 -10 -10 0 -27 -7 -37 -15
-11 -8 -29 -15 -40 -14 -14 0 -3 9 29 24 58 27 65 29 65 15z m-1 -66 c-18 -22
-22 -11 -7 22 10 21 14 24 16 10 2 -9 -2 -24 -9 -32z m122 -29 c-3 -5 -7 -2
-9 8 -2 9 -8 17 -13 17 -5 0 -9 12 -9 28 1 27 1 27 19 -8 10 -19 15 -39 12
-45z m-151 50 c-7 -8 -17 -12 -22 -9 -6 4 -5 10 3 15 22 14 33 10 19 -6z m-60
-100 c-7 -8 -22 -15 -34 -15 -21 1 -21 1 -2 15 27 21 53 20 36 0z m248 -46
c19 -30 8 -34 -12 -4 -9 14 -13 25 -9 25 5 0 14 -9 21 -21z m-61 -21 c-3 -8
-6 -5 -6 6 -1 11 2 17 5 13 3 -3 4 -12 1 -19z m487 -323 c3 -8 1 -15 -4 -15
-6 0 -10 7 -10 15 0 8 2 15 4 15 2 0 6 -7 10 -15z m26 -39 c0 -3 -4 -8 -10
-11 -5 -3 -10 -1 -10 4 0 6 5 11 10 11 6 0 10 -2 10 -4z m24 -86 c6 -31 5 -33
-8 -20 -10 9 -13 24 -9 38 7 28 8 26 17 -18z m-2001 -466 c-7 -3 -9 -12 -6
-20 7 -18 -11 -18 -26 -1 -13 17 -4 27 23 26 12 0 16 -3 9 -5z m-74 -392 c1
-82 1 -83 29 -88 15 -3 32 -15 37 -27 6 -12 20 -23 33 -25 13 -2 26 -10 29
-18 3 -8 16 -14 28 -14 13 0 26 -4 30 -9 3 -6 22 -10 43 -11 20 0 46 -1 57 -2
46 -1 103 11 150 33 28 12 54 23 60 23 5 1 10 -24 10 -56 0 -31 -3 -54 -7 -51
-5 2 -8 -7 -8 -22 0 -14 -7 -28 -15 -31 -8 -3 -17 -25 -21 -50 -3 -24 -12 -49
-20 -55 -8 -6 -14 -16 -14 -21 0 -12 -54 -57 -96 -80 -29 -15 -35 -16 -48 -3
-19 19 -26 19 -26 0 0 -8 -7 -15 -15 -15 -8 0 -15 7 -15 15 0 12 -11 15 -52
13 -42 -2 -53 0 -53 13 0 8 -8 23 -17 33 -10 10 -18 26 -18 37 0 10 -9 28 -19
38 -11 11 -25 39 -32 63 -6 24 -16 53 -22 66 -12 26 -33 30 -22 5 10 -26 14
-93 4 -88 -4 3 -3 -11 2 -30 17 -60 4 -64 -14 -5 -36 117 -45 255 -28 393 5
37 15 75 22 84 12 14 14 13 20 -8 4 -13 7 -61 8 -107z m556 -396 c1 -38 -22
-63 -42 -44 -11 12 -11 19 3 47 19 38 37 36 39 -3z m459 -404 c10 -16 -11 -31
-71 -52 -92 -32 -136 -12 -68 30 26 16 39 19 54 11 14 -8 22 -7 31 4 13 16 46
20 54 7z m-1254 -161 c0 -5 -7 -11 -14 -14 -10 -4 -13 -1 -9 9 6 15 23 19 23
5z m30 -21 c0 -5 -2 -10 -4 -10 -3 0 -8 5 -11 10 -3 6 -1 10 4 10 6 0 11 -4
11 -10z m-130 -16 c0 -2 -9 -4 -21 -4 -11 0 -18 4 -14 10 5 8 35 3 35 -6z
m190 -10 c17 -9 43 -16 57 -16 13 0 27 -6 30 -14 9 -23 35 -3 29 22 -7 27 5
32 23 10 9 -11 6 -18 -14 -34 -15 -12 -21 -23 -15 -27 15 -9 12 -25 -4 -25 -7
0 -16 9 -19 20 -3 12 -14 20 -25 20 -12 0 -23 4 -26 9 -3 5 -21 12 -40 15 -19
4 -37 13 -40 21 -7 19 3 19 44 -1z m174 -66 c23 -33 21 -57 -4 -51 -16 4 -18
8 -9 19 9 11 6 18 -12 34 -20 16 -21 19 -7 20 9 0 24 -10 32 -22z m81 -28
c-10 -17 -35 -11 -35 8 0 10 3 21 6 25 9 9 36 -21 29 -33z m-235 20 c0 -5 -4
-10 -9 -10 -6 0 -13 5 -16 10 -3 6 1 10 9 10 9 0 16 -4 16 -10z m42 -31 c17
-9 18 -13 7 -20 -20 -12 -23 -11 -37 11 -14 23 -2 26 30 9z m233 -9 c3 -5 15
-10 26 -10 12 0 19 -7 19 -20 0 -11 -4 -20 -10 -20 -5 0 -10 7 -10 15 0 8 -4
15 -9 15 -5 0 -17 3 -25 6 -12 4 -15 2 -10 -9 3 -8 1 -18 -4 -21 -5 -3 -12 5
-14 19 -6 29 23 48 37 25z m145 -31 c0 -18 -18 -9 -23 12 -4 16 -3 18 9 8 8
-6 14 -15 14 -20z m-338 -11 c-9 -9 -12 -7 -12 12 0 19 3 21 12 12 9 -9 9 -15
0 -24z m134 -17 c-4 -6 -14 -7 -23 -4 -15 6 -14 7 3 13 22 9 29 6 20 -9z m74
3 c0 -8 -4 -12 -10 -9 -5 3 -10 10 -10 16 0 5 5 9 10 9 6 0 10 -7 10 -16z m70
6 c0 -5 -4 -10 -10 -10 -5 0 -10 5 -10 10 0 6 5 10 10 10 6 0 10 -4 10 -10z
m90 -16 c0 -8 -4 -12 -10 -9 -5 3 -10 10 -10 16 0 5 5 9 10 9 6 0 10 -7 10
-16z m-40 -4 c0 -5 -4 -10 -10 -10 -5 0 -10 5 -10 10 0 6 5 10 10 10 6 0 10
-4 10 -10z m-173 -42 c-3 -8 -6 -5 -6 6 -1 11 2 17 5 13 3 -3 4 -12 1 -19z m3
-473 c0 -8 -4 -15 -10 -15 -5 0 -10 7 -10 15 0 8 5 15 10 15 6 0 10 -7 10 -15z
m1060 -65 c-8 -5 -19 -10 -25 -10 -5 0 -3 5 5 10 8 5 20 10 25 10 6 0 3 -5 -5
-10z m-450 -210 c0 -5 -4 -10 -10 -10 -5 0 -10 5 -10 10 0 6 5 10 10 10 6 0
10 -4 10 -10z"/>
<path d="M942 2140 c0 -14 2 -19 5 -12 2 6 2 18 0 25 -3 6 -5 1 -5 -13z"/>
<path d="M951 2034 c0 -11 3 -14 6 -6 3 7 2 16 -1 19 -3 4 -6 -2 -5 -13z"/>
<path d="M1097 2778 c-10 -11 -17 -22 -14 -24 2 -2 12 5 22 16 23 26 16 33 -8
8z"/>
<path d="M2264 2659 c-3 -6 -12 -8 -20 -5 -7 3 -16 2 -18 -3 -3 -4 -29 -6 -58
-3 -52 4 -111 -5 -193 -28 -22 -6 -62 -16 -88 -22 -65 -15 -132 -75 -123 -111
4 -18 17 -29 41 -37 36 -12 41 -22 36 -82 -2 -20 2 -28 13 -28 9 0 16 -4 16
-10 0 -5 11 -10 25 -10 16 0 25 -6 25 -15 0 -8 6 -15 13 -15 8 0 19 -11 25
-25 7 -15 8 -25 2 -25 -6 0 -10 -4 -10 -10 0 -5 6 -10 14 -10 7 0 19 -7 27
-16 12 -14 14 -14 21 6 5 14 14 20 25 16 56 -16 110 -16 147 -1 27 11 35 19
27 25 -10 6 -10 11 0 28 19 30 72 50 173 67 80 12 122 25 85 25 -8 0 -42 13
-77 30 -41 19 -92 33 -150 40 -119 15 -117 14 -96 50 10 16 20 28 22 26 2 -3
20 3 40 11 20 9 57 17 82 18 136 9 174 15 187 28 13 13 12 16 -8 22 -13 4 -40
14 -59 22 -105 45 -138 54 -146 42z"/>
<path d="M2470 2540 c0 -5 5 -10 10 -10 6 0 10 5 10 10 0 6 -4 10 -10 10 -5 0
-10 -4 -10 -10z"/>
<path d="M2000 1907 c0 -12 -3 -33 -5 -47 -4 -17 -3 -19 2 -8 7 15 14 12 53
-23 93 -84 220 -189 229 -189 5 0 7 9 4 20 -4 16 0 20 20 20 37 0 52 31 36 75
-10 27 -19 35 -37 35 -22 0 -88 32 -142 70 -14 9 -32 19 -40 22 -8 3 -39 15
-67 27 l-53 21 0 -23z"/>
<path d="M1980 1590 c0 -5 5 -10 10 -10 6 0 10 5 10 10 0 6 -4 10 -10 10 -5 0
-10 -4 -10 -10z"/>
<path d="M2853 1541 c-9 -24 -8 -29 3 -24 8 3 14 9 14 13 0 5 3 15 6 24 3 9 2
16 -3 16 -5 0 -14 -13 -20 -29z"/>
<path d="M2857 1403 c-14 -4 -17 -12 -13 -36 3 -18 8 -54 11 -82 4 -29 18 -66
35 -90 27 -39 37 -45 142 -79 62 -21 135 -51 161 -67 27 -16 50 -29 51 -29 8
0 29 131 31 187 1 44 -3 64 -12 67 -7 3 -13 12 -13 21 0 9 -9 15 -22 15 -13 0
-36 7 -52 15 -15 8 -37 15 -47 15 -10 0 -22 8 -27 17 -6 10 -25 17 -53 19 -51
4 -88 9 -109 17 -27 10 -65 14 -83 10z"/>
<path d="M380 1360 c-9 -6 -10 -10 -3 -10 6 0 15 5 18 10 8 12 4 12 -15 0z"/>
<path d="M480 1334 c0 -12 4 -14 13 -7 6 6 19 13 27 16 9 3 3 6 -12 6 -20 1
-28 -4 -28 -15z"/>
<path d="M580 1316 c0 -2 7 -6 15 -10 8 -3 15 -1 15 4 0 6 -7 10 -15 10 -8 0
-15 -2 -15 -4z"/>
<path d="M1015 1300 c-3 -5 -1 -10 4 -10 6 0 11 5 11 10 0 6 -2 10 -4 10 -3 0
-8 -4 -11 -10z"/>
<path d="M1041 1282 c-1 -8 -10 -10 -28 -7 -24 5 -24 4 6 -10 39 -18 41 -17
30 10 -4 11 -8 14 -8 7z"/>
<path d="M93 1253 c11 -17 -20 -35 -45 -28 -16 4 -19 3 -9 -3 17 -12 6 -32
-20 -32 -18 0 -19 -8 -19 -110 l0 -110 92 0 c51 0 143 5 205 11 l112 11 80
-49 c44 -26 81 -50 81 -53 0 -3 -21 -7 -47 -8 -27 -1 -61 -5 -78 -8 -16 -2
-34 -5 -40 -5 -30 0 -197 21 -205 26 -4 3 -10 -1 -13 -7 -3 -10 -9 -10 -25 -1
-11 6 -22 9 -26 6 -3 -3 -35 -6 -71 -5 l-65 0 0 -160 c0 -128 3 -163 14 -172
10 -7 13 -21 9 -39 -3 -16 -8 -24 -12 -19 -3 6 -7 -24 -8 -66 -2 -49 2 -79 9
-83 9 -6 9 -11 0 -21 -8 -11 -7 -14 6 -14 10 0 28 13 41 29 24 29 24 29 3 23
-19 -6 -22 -3 -22 17 0 14 -6 27 -12 30 -7 2 1 6 18 9 26 3 31 1 27 -11 -4
-13 -2 -12 10 1 16 21 32 24 21 6 -4 -7 12 5 34 26 23 22 44 53 48 69 6 30 39
66 59 67 35 1 92 27 150 66 53 36 82 48 143 60 42 8 91 19 108 24 17 6 38 10
47 10 9 0 17 5 17 11 0 6 -9 9 -20 6 -11 -3 -20 -1 -20 4 0 5 5 9 11 9 24 0
-4 18 -38 25 -30 5 -34 9 -21 16 12 6 25 5 40 -3 42 -24 67 -45 61 -52 -18
-18 43 -2 75 19 20 14 43 25 52 25 8 0 -5 11 -29 25 -48 28 -67 31 -74 13 -2
-7 -8 -10 -12 -5 -5 4 0 14 11 21 22 17 13 32 -13 21 -34 -15 -63 -16 -61 -3
2 7 -4 12 -12 10 -8 -1 -4 7 10 18 l25 20 -50 -5 c-27 -2 -44 -2 -37 1 25 11
11 24 -23 20 -20 -3 -33 -1 -30 5 8 12 72 12 95 -1 13 -7 21 -7 25 0 3 5 -2
10 -12 10 -11 0 -24 5 -31 12 -7 7 -12 9 -12 4 0 -4 -11 6 -25 22 -19 22 -31
28 -50 24 -23 -4 -25 -2 -20 20 4 17 1 31 -10 41 -15 15 -18 15 -41 1 -33 -22
-31 -38 6 -30 35 6 39 1 9 -14 -15 -8 -24 -8 -34 0 -9 7 -15 8 -20 0 -3 -5
-11 -10 -16 -10 -6 0 -7 5 -4 10 4 6 1 18 -7 27 -11 15 -11 16 5 10 20 -7 55
19 42 31 -4 4 -10 1 -12 -5 -3 -7 -9 -13 -15 -13 -6 0 -8 6 -5 13 3 7 -4 19
-15 26 -16 10 -18 10 -12 0 5 -9 2 -10 -10 -6 -10 4 -21 7 -25 7 -5 0 -6 11
-3 25 4 24 2 25 -27 20 -29 -5 -32 -3 -29 16 5 34 -39 60 -108 64 -32 2 -70 6
-83 11 -16 5 -22 4 -18 -3z m99 -41 c-7 -2 -10 -8 -7 -12 3 -5 -4 -8 -14 -7
-19 1 -19 3 -4 19 8 10 20 15 26 11 8 -5 7 -8 -1 -11z m-82 -2 c0 -5 -2 -10
-4 -10 -3 0 -8 5 -11 10 -3 6 -1 10 4 10 6 0 11 -4 11 -10z m130 -26 c0 -11
-5 -14 -16 -10 -9 3 -18 6 -20 6 -3 0 -2 5 1 10 10 16 35 12 35 -6z m38 4 c17
-17 15 -28 -4 -28 -10 0 -14 6 -11 14 3 8 1 17 -6 20 -7 2 -7 5 -1 5 5 1 15
-4 22 -11z m-35 -48 c3 -11 1 -20 -4 -20 -5 0 -9 2 -9 4 0 2 -3 11 -6 20 -3 9
-2 16 4 16 5 0 12 -9 15 -20z m97 -25 c7 -9 8 -15 2 -15 -5 0 -12 7 -16 15 -3
8 -4 15 -2 15 2 0 9 -7 16 -15z m124 -104 c3 -5 16 -7 29 -4 19 4 20 3 4 -7
-19 -12 -57 -5 -57 11 0 12 17 12 24 0z m126 -35 c0 -2 -9 -6 -20 -9 -11 -3
-20 -1 -20 4 0 5 9 9 20 9 11 0 20 -2 20 -4z m-55 -34 c-3 -3 -11 0 -18 7 -9
10 -8 11 6 5 10 -3 15 -9 12 -12z m100 -52 c-3 -5 -12 -10 -18 -10 -7 0 -6 4
3 10 19 12 23 12 15 0z m-68 -35 c9 -24 0 -25 -27 -5 l-25 20 23 0 c12 0 25
-7 29 -15z m48 -25 c3 -5 -3 -10 -14 -10 -12 0 -21 5 -21 10 0 6 6 10 14 10 8
0 18 -4 21 -10z m-75 -20 c0 -5 -2 -10 -4 -10 -3 0 -8 5 -11 10 -3 6 -1 10 4
10 6 0 11 -4 11 -10z m167 4 c-3 -3 -12 -4 -19 -1 -8 3 -5 6 6 6 11 1 17 -2
13 -5z m106 -11 c-7 -2 -21 -2 -30 0 -10 3 -4 5 12 5 17 0 24 -2 18 -5z m-177
-28 c-3 -8 2 -19 12 -24 12 -7 13 -10 3 -11 -13 0 -40 28 -41 43 0 4 7 7 16 7
10 0 14 -6 10 -15z m-26 -25 c0 -5 -4 -10 -9 -10 -6 0 -13 5 -16 10 -3 6 1 10
9 10 9 0 16 -4 16 -10z m-100 -14 c0 -3 -4 -8 -10 -11 -5 -3 -10 -1 -10 4 0 6
5 11 10 11 6 0 10 -2 10 -4z m-356 -255 c3 -4 -6 -6 -19 -3 -14 2 -25 6 -25 8
0 8 39 4 44 -5z m-71 -18 c-7 -2 -19 -2 -25 0 -7 3 -2 5 12 5 14 0 19 -2 13
-5z m-48 -23 c3 -5 2 -10 -4 -10 -5 0 -13 5 -16 10 -3 6 -2 10 4 10 5 0 13 -4
16 -10z"/>
<path d="M503 1253 c9 -2 23 -2 30 0 6 3 -1 5 -18 5 -16 0 -22 -2 -12 -5z"/>
<path d="M3978 1203 c7 -3 16 -2 19 1 4 3 -2 6 -13 5 -11 0 -14 -3 -6 -6z"/>
<path d="M380 1159 c0 -5 5 -7 10 -4 6 3 10 8 10 11 0 2 -4 4 -10 4 -5 0 -10
-5 -10 -11z"/>
<path d="M2997 1088 c7 -8 51 -41 98 -73 47 -31 85 -63 85 -71 0 -22 21 -27
36 -8 37 49 2 86 -124 129 -37 13 -76 27 -87 31 -17 7 -18 5 -8 -8z"/>
<path d="M707 1014 c-8 -9 21 -36 34 -32 6 2 2 11 -9 21 -10 9 -21 14 -25 11z"/>
<path d="M635 980 c3 -5 10 -10 16 -10 5 0 9 5 9 10 0 6 -7 10 -16 10 -8 0
-12 -4 -9 -10z"/>
<path d="M943 963 c-15 -5 -17 -29 -5 -37 5 -3 21 -2 37 2 l28 8 -24 15 c-13
9 -30 14 -36 12z"/>
<path d="M0 940 c0 -11 7 -20 15 -20 13 0 14 4 5 20 -6 11 -13 20 -15 20 -3 0
-5 -9 -5 -20z"/>
<path d="M165 950 c-3 -5 -1 -10 4 -10 6 0 11 5 11 10 0 6 -2 10 -4 10 -3 0
-8 -4 -11 -10z"/>
<path d="M228 953 c7 -3 16 -2 19 1 4 3 -2 6 -13 5 -11 0 -14 -3 -6 -6z"/>
<path d="M710 945 c0 -8 4 -15 10 -15 5 0 7 7 4 15 -4 8 -8 15 -10 15 -2 0 -4
-7 -4 -15z"/>
<path d="M890 950 c0 -5 7 -10 16 -10 8 0 12 5 9 10 -3 6 -10 10 -16 10 -5 0
-9 -4 -9 -10z"/>
<path d="M1046 943 c-5 -11 1 -23 16 -34 12 -10 20 -21 16 -24 -3 -4 -36 -8
-72 -10 -54 -2 -66 0 -66 12 0 9 -6 13 -15 9 -8 -3 -15 0 -15 6 0 9 -3 9 -12
0 -10 -10 -10 -15 2 -22 10 -7 11 -10 3 -10 -29 0 -10 -18 25 -23 47 -6 150
20 179 46 l22 20 -35 23 c-42 29 -40 28 -48 7z"/>
<path d="M745 930 c3 -5 8 -10 11 -10 2 0 4 5 4 10 0 6 -5 10 -11 10 -5 0 -7
-4 -4 -10z"/>
<path d="M1020 926 c0 -12 -5 -16 -17 -12 -10 3 -25 1 -33 -4 -12 -7 -8 -10
15 -11 17 0 38 -2 47 -4 15 -3 16 0 7 18 -16 31 -19 33 -19 13z"/>
<path d="M3933 933 c9 -2 23 -2 30 0 6 3 -1 5 -18 5 -16 0 -22 -2 -12 -5z"/>
<path d="M706 911 c-4 -5 -2 -12 4 -16 6 -4 7 -11 4 -17 -4 -6 -2 -8 4 -5 10
7 11 32 0 42 -3 4 -9 2 -12 -4z"/>
<path d="M858 883 c7 -3 16 -2 19 1 4 3 -2 6 -13 5 -11 0 -14 -3 -6 -6z"/>
<path d="M2390 850 c0 -5 5 -10 10 -10 6 0 10 5 10 10 0 6 -4 10 -10 10 -5 0
-10 -4 -10 -10z"/>
<path d="M3767 845 c-5 -10 3 -19 26 -29 l32 -14 -33 -1 c-20 -1 -31 3 -27 9
3 6 -1 13 -10 17 -10 3 -20 1 -24 -6 -4 -6 -16 -9 -27 -6 -18 6 -18 6 1 -9 11
-9 25 -14 33 -11 7 2 10 1 7 -4 -3 -5 -1 -12 5 -16 5 -3 10 -1 10 5 0 8 9 10
24 6 15 -4 28 0 36 9 7 8 19 15 26 15 8 0 14 4 14 9 0 5 14 11 32 15 30 6 47
-4 48 -26 0 -10 -23 -6 -31 5 -3 4 -14 4 -24 1 -16 -6 -13 -10 16 -20 37 -14
82 -17 92 -8 6 7 -17 34 -29 34 -3 0 -15 10 -26 22 -14 16 -21 19 -30 10 -7
-7 -22 -12 -34 -12 -13 0 -26 -4 -29 -10 -10 -16 -35 -12 -29 5 4 8 2 15 -4
15 -6 0 -17 3 -25 6 -8 3 -17 -2 -20 -11z"/>
<path d="M908 823 c7 -3 16 -2 19 1 4 3 -2 6 -13 5 -11 0 -14 -3 -6 -6z"/>
<path d="M875 770 c-3 -5 -2 -10 4 -10 5 0 13 5 16 10 3 6 2 10 -4 10 -5 0
-13 -4 -16 -10z"/>
<path d="M3885 770 c3 -5 8 -10 11 -10 2 0 4 5 4 10 0 6 -5 10 -11 10 -5 0 -7
-4 -4 -10z"/>
<path d="M3125 750 c4 -6 11 -8 16 -5 14 9 11 15 -7 15 -8 0 -12 -5 -9 -10z"/>
<path d="M3930 740 c-13 -8 -12 -10 3 -10 9 0 17 5 17 10 0 12 -1 12 -20 0z"/>
<path d="M3970 740 c0 -5 7 -10 16 -10 8 0 12 5 9 10 -3 6 -10 10 -16 10 -5 0
-9 -4 -9 -10z"/>
<path d="M3266 723 c-7 -18 14 -37 27 -24 9 9 -1 41 -13 41 -4 0 -11 -8 -14
-17z"/>
<path d="M2495 720 c-3 -5 1 -10 10 -10 9 0 13 5 10 10 -3 6 -8 10 -10 10 -2
0 -7 -4 -10 -10z"/>
<path d="M840 704 c0 -8 5 -12 10 -9 6 3 10 10 10 16 0 5 -4 9 -10 9 -5 0 -10
-7 -10 -16z"/>
<path d="M3965 690 c16 -10 31 -17 34 -14 7 6 -32 33 -49 34 -8 0 -2 -9 15
-20z"/>
<path d="M3114 665 c-6 -19 -8 -35 -4 -35 4 0 5 -12 2 -26 -6 -32 -24 -17 -24
20 0 21 -3 24 -14 15 -8 -6 -14 -16 -14 -21 0 -5 -9 -17 -19 -26 -20 -18 -73
-160 -65 -174 8 -12 48 -10 62 4 7 7 12 24 12 39 0 15 5 29 11 31 6 2 13 17
14 32 4 30 20 54 31 44 3 -4 1 -15 -5 -26 -13 -25 -15 -60 -2 -46 13 14 27 83
30 147 1 31 1 57 -1 57 -2 0 -8 -16 -14 -35z"/>
<path d="M783 635 c-24 -24 -43 -48 -43 -53 0 -6 -24 -28 -52 -49 -34 -24 -54
-46 -55 -61 -3 -20 0 -21 17 -12 11 6 17 16 14 25 -4 8 -2 15 4 15 6 0 12 -6
15 -12 3 -9 11 -5 26 11 11 13 21 20 21 15 0 -5 8 3 17 16 10 14 17 28 16 31
-1 4 11 21 27 39 28 31 46 68 38 74 -1 2 -22 -16 -45 -39z"/>
<path d="M3281 614 c0 -11 3 -14 6 -6 3 7 2 16 -1 19 -3 4 -6 -2 -5 -13z"/>
<path d="M921 598 c0 -10 -5 -18 -9 -18 -5 0 -14 -10 -21 -22 -6 -13 -25 -45
-41 -73 -16 -27 -34 -60 -39 -72 -5 -11 -15 -24 -21 -28 -5 -3 -8 -11 -5 -16
4 -5 2 -9 -3 -9 -4 0 -34 -40 -66 -90 -32 -49 -63 -90 -68 -90 -5 0 -6 -10 -3
-21 5 -15 4 -19 -4 -15 -7 5 -14 -4 -17 -23 -4 -17 -12 -31 -19 -31 -8 0 -16
-13 -20 -30 -4 -16 -11 -32 -16 -35 -30 -19 2 -25 118 -23 l128 3 27 50 c15
28 27 56 27 64 1 7 11 34 24 60 13 25 25 51 27 56 4 16 24 41 40 50 11 6 10 3
-2 -12 -10 -11 -18 -23 -18 -27 0 -4 -9 -26 -19 -49 -11 -24 -21 -61 -23 -82
-2 -22 -9 -46 -16 -54 -7 -7 -12 -23 -10 -35 3 -20 9 -21 146 -24 l143 -3 -29
43 c-15 24 -39 70 -51 103 -39 104 -42 109 -69 148 -16 25 -26 51 -25 73 1 19
-3 34 -9 34 -5 0 -6 5 -3 10 4 6 10 8 15 5 5 -3 -4 20 -20 52 -16 32 -33 78
-38 103 -5 25 -10 37 -11 28z"/>
<path d="M2167 593 c-4 -3 -7 -15 -7 -25 0 -14 6 -18 23 -16 12 2 21 9 20 16
-2 6 2 12 7 12 6 0 10 5 10 10 0 11 -43 14 -53 3z"/>
<path d="M3327 551 c3 -13 -2 -20 -17 -24 -12 -3 -19 -10 -15 -16 9 -15 37
-14 59 2 15 11 17 17 7 35 -14 27 -41 30 -34 3z"/>
<path d="M351 538 c0 -9 -4 -25 -7 -35 -5 -17 -5 -17 6 0 6 10 9 25 7 35 -4
15 -5 15 -6 0z"/>
<path d="M2160 520 c0 -5 7 -10 16 -10 8 0 12 5 9 10 -3 6 -10 10 -16 10 -5 0
-9 -4 -9 -10z"/>
<path d="M505 479 c-4 -6 -5 -12 -2 -15 2 -3 7 2 10 11 7 17 1 20 -8 4z"/>
<path d="M3314 479 c-3 -5 2 -9 10 -9 14 0 21 -18 17 -42 0 -5 14 -7 32 -7 17
1 24 3 15 6 -10 2 -18 12 -18 21 0 19 -47 45 -56 31z"/>
<path d="M251 434 c0 -11 3 -14 6 -6 3 7 2 16 -1 19 -3 4 -6 -2 -5 -13z"/>
<path d="M3480 421 c0 -5 12 -11 27 -14 26 -5 26 -4 8 9 -22 16 -35 18 -35 5z"/>
<path d="M2945 389 c-4 -6 -1 -15 6 -20 8 -5 10 -9 4 -9 -5 0 -17 -5 -25 -10
-13 -9 -11 -13 10 -31 l25 -20 -36 5 c-33 6 -41 2 -83 -39 -26 -25 -52 -45
-57 -45 -5 0 -26 -16 -46 -37 -21 -20 -53 -42 -71 -50 -24 -10 -32 -18 -28
-31 4 -11 -2 -22 -16 -31 -16 -10 -23 -11 -26 -2 -3 9 -7 9 -17 1 -8 -6 -11
-18 -8 -26 5 -13 -7 -18 -34 -15 -7 1 -13 -5 -13 -14 0 -13 20 -15 135 -15
l135 0 1 73 c1 55 3 65 9 44 5 -15 7 -48 4 -72 -3 -36 -1 -45 12 -45 12 0 15
9 13 45 -4 62 7 66 15 5 4 -27 11 -50 16 -50 10 0 45 35 67 66 9 14 21 20 33
17 26 -7 25 2 -1 30 -15 15 -23 18 -26 10 -7 -19 -23 -16 -23 5 0 9 -7 25 -15
35 -16 22 -9 48 11 40 18 -7 17 7 -1 31 -33 43 -3 64 37 26 26 -24 34 -25 42
-4 4 10 -1 25 -11 36 -16 18 -16 19 5 25 13 3 22 13 22 25 0 16 -5 19 -20 15
-17 -4 -20 -1 -18 15 3 23 -16 36 -27 17z"/>
<path d="M3470 330 c8 -5 20 -10 25 -10 6 0 3 5 -5 10 -8 5 -19 10 -25 10 -5
0 -3 -5 5 -10z"/>
<path d="M433 303 c8 -9 20 -12 26 -9 19 12 12 21 -15 23 -24 1 -25 -1 -11
-14z"/>
<path d="M233 155 l2 -155 29 0 c25 0 28 3 22 22 -3 13 -6 31 -6 41 0 10 -4
15 -10 12 -6 -3 -10 3 -10 14 0 12 6 21 13 21 8 0 9 2 1 8 -16 10 -27 66 -26
135 0 31 -4 57 -9 57 -5 0 -8 -69 -6 -155z"/>
<path d="M3121 274 c0 -11 3 -14 6 -6 3 7 2 16 -1 19 -3 4 -6 -2 -5 -13z"/>
<path d="M286 251 c-4 -7 -5 -15 -2 -18 9 -9 19 4 14 18 -4 11 -6 11 -12 0z"/>
<path d="M415 244 c-3 -11 -12 -31 -20 -46 -9 -17 -10 -30 -4 -34 6 -3 6 -10
1 -17 -5 -7 -15 -37 -23 -67 -7 -30 -17 -61 -22 -68 -7 -8 -4 -12 12 -12 14 0
22 8 26 28 14 62 49 188 57 198 5 7 2 17 -7 24 -12 10 -16 9 -20 -6z"/>
<path d="M190 240 c0 -5 5 -10 11 -10 5 0 7 5 4 10 -3 6 -8 10 -11 10 -2 0 -4
-4 -4 -10z"/>
<path d="M285 210 c-3 -5 -1 -10 4 -10 6 0 11 5 11 10 0 6 -2 10 -4 10 -3 0
-8 -4 -11 -10z"/>
<path d="M196 183 c6 -22 4 -25 -9 -20 -14 5 -16 -3 -13 -67 3 -79 9 -96 32
-96 8 0 13 4 10 9 -3 5 -6 52 -7 105 0 53 -5 96 -10 96 -5 0 -6 -12 -3 -27z"/>
<path d="M3577 157 c-22 -53 -21 -60 2 -48 20 11 34 58 22 78 -3 7 -13 -5 -24
-30z"/>
<path d="M3035 140 c-4 -28 -18 -71 -31 -95 l-23 -45 70 0 71 0 -31 31 c-28
28 -31 36 -31 95 0 76 -15 85 -25 14z"/>
<path d="M293 96 c8 -121 22 -135 17 -16 -3 72 -6 89 -14 97 -5 5 -6 -32 -3
-81z"/>
<path d="M3458 173 c7 -3 16 -2 19 1 4 3 -2 6 -13 5 -11 0 -14 -3 -6 -6z"/>
<path d="M2930 154 c0 -17 22 -14 28 4 2 7 -3 12 -12 12 -9 0 -16 -7 -16 -16z"/>
<path d="M3213 138 c-12 -17 -11 -62 2 -66 6 -1 11 16 12 38 3 43 1 47 -14 28z"/>
<path d="M3435 140 c3 -5 16 -10 28 -10 18 0 19 2 7 10 -20 13 -43 13 -35 0z"/>
<path d="M3370 75 c0 -8 5 -15 10 -15 6 0 10 7 10 15 0 8 -4 15 -10 15 -5 0
-10 -7 -10 -15z"/>
<path d="M100 40 c0 -33 3 -40 20 -40 22 0 25 16 10 54 -14 39 -30 31 -30 -14z"/>
<path d="M3255 70 c3 -5 14 -10 23 -10 15 0 15 2 2 10 -20 13 -33 13 -25 0z"/>
<path d="M3413 64 c-9 -23 9 -34 39 -26 l27 7 -30 17 c-26 16 -30 16 -36 2z"/>
<path d="M3700 69 c0 -5 5 -7 10 -4 6 3 10 8 10 11 0 2 -4 4 -10 4 -5 0 -10
-5 -10 -11z"/>
<path d="M3490 59 c0 -5 5 -7 10 -4 6 3 10 8 10 11 0 2 -4 4 -10 4 -5 0 -10
-5 -10 -11z"/>
<path d="M3310 50 c-23 -14 -5 -22 34 -14 21 3 36 7 34 9 -12 9 -56 13 -68 5z"/>
<path d="M3480 14 c0 -8 5 -12 10 -9 6 3 10 10 10 16 0 5 -4 9 -10 9 -5 0 -10
-7 -10 -16z"/>
<path d="M3420 10 c0 -5 7 -7 15 -4 8 4 15 8 15 10 0 2 -7 4 -15 4 -8 0 -15
-4 -15 -10z"/>
</g>
</svg>
